:FULLY-SPECIFIED
:FORCE-ALL-JOINTS-BE-3DOF
:DEGREES
476
root 3.48253 16.3343 -7.18711 4.85267 64.7647 -7.21689
lfemur -40.5447 0.512485 -23.6211
ltibia 49.0111 -0 0
lfoot -20.3295 -1.41886 -0.0387515
ltoes 19.4043 -0 0
rfemur -24.5231 -0.761021 12.135
rtibia 67.5263 -0 0
rfoot 25.4286 -1.86985 -0.732601
rtoes -27.7853 0 0
lowerback 1.25811 -0.401908 2.14539
upperback -0.691916 -0.467389 1.30093
thorax -1.42253 -0.243337 0.167277
lowerneck -8.48675 -7.1199 0.335461
upperneck 4.30885 -9.63835 1.44184
head 2.90574 -4.7249 -0.0789762
lclavicle -5.76476e-14 -2.14687e-14 0
lhumerus -49.0736 -27.0485 109.566
lradius 54.375 -0 0
lwrist 2.79922 0 0
lhand -9.24969 -6.80458 0.697071
lfingers 7.12502 -0 0
lthumb 16.6813 22.1354 0.593621
rclavicle -5.76476e-14 -2.14687e-14 0
rhumerus -52.8416 4.22618 -85.4676
rradius 63.5793 -0 0
rwrist 16.4573 0 0
rhand -26.6014 -26.3519 0.0902822
rfingers 7.12502 -0 0
rthumb -0.0350392 -56.302 0.0866125
477
root 3.54222 16.345 -7.16557 5.15443 65.969 -6.50759
lfemur -39.4411 -0.975435 -23.8088
ltibia 48.4487 -0 0
lfoot -20.4086 -1.44944 -0.0360051
ltoes 19.5717 -0 0
rfemur -26.7242 -0.651655 11.8982
rtibia 70.0404 -0 0
rfoot 24.8112 -0.762521 -0.725544
rtoes -26.0815 0 0
lowerback 1.43809 -0.42343 1.83593
upperback -0.649048 -0.500486 1.19141
thorax -1.47911 -0.258092 0.228336
lowerneck -8.5001 -7.2839 0.186161
upperneck 4.40079 -9.84793 1.51222
head 2.9515 -4.82745 -0.0458637
lclavicle -5.76476e-14 -2.14687e-14 0
lhumerus -49.1794 -27.4089 109.815
lradius 54.6546 -0 0
lwrist 3.06041 0 0
lhand -7.89052 -6.07532 0.658651
lfingers 7.12502 -0 0
lthumb 17.9899 22.7729 0.56284
rclavicle -5.76476e-14 -2.14687e-14 0
rhumerus -52.5705 4.91534 -86.0384
rradius 63.7851 -0 0
rwrist 17.0194 0 0
rhand -26.1712 -26.027 0.0830779
rfingers 7.12502 -0 0
rthumb 0.380441 -55.9792 0.0796986
478
root 3.60822 16.3556 -7.1383 5.48155 67.0255 -5.79334
lfemur -38.3731 -2.40556 -23.96
ltibia 47.9248 -0 0
lfoot -20.4963 -1.49834 -0.0325287
ltoes 19.6682 -0 0
rfemur -28.8707 -0.559523 11.6549
rtibia 72.4537 -0 0
rfoot 24.1192 0.300422 -0.694993
rtoes -24.4513 0 0
lowerback 1.62536 -0.439167 1.53593
upperback -0.603164 -0.526811 1.08271
thorax -1.53639 -0.269493 0.284496
lowerneck -8.51076 -7.43001 0.0503284
upperneck 4.48355 -10.0347 1.57893
head 2.9934 -4.91875 -0.0150651
lclavicle -5.76476e-14 -2.14687e-14 0
lhumerus -49.2658 -27.7681 110.037
lradius 54.9292 -0 0
lwrist 3.32837 0 0
lhand -6.5766 -5.34708 0.601378
lfingers 7.12502 -0 0
lthumb 19.2552 23.4132 0.515752
rclavicle -5.76476e-14 -2.14687e-14 0
rhumerus -52.3009 5.58154 -86.606
rradius 63.9934 -0 0
rwrist 17.5651 0 0
rhand -25.757 -25.7131 0.0737297
rfingers 7.12502 -0 0
rthumb 0.780457 -55.6674 0.0707284
479
root 3.68212 16.3665 -7.10358 5.82034 67.9176 -5.09203
lfemur -37.3549 -3.76258 -24.0671
ltibia 47.4463 -0 0
lfoot -20.5921 -1.5658 -0.0283789
ltoes 19.6899 -0 0
rfemur -30.9383 -0.485679 11.4086
rtibia 74.7377 -0 0
rfoot 23.3571 1.30584 -0.639703
rtoes -22.9145 0 0
lowerback 1.81827 -0.448766 1.24885
upperback -0.554633 -0.545816 0.975977
thorax -1.5938 -0.277296 0.334978
lowerneck -8.51866 -7.55601 -0.0700959
upperneck 4.55598 -10.1957 1.64123
head 3.03088 -4.9974 0.0130348
lclavicle -5.76476e-14 -2.14687e-14 0
lhumerus -49.3307 -28.1225 110.227
lradius 55.1959 -0 0
lwrist 3.60063 0 0
lhand -5.32343 -4.62765 0.526923
lfingers 7.12502 -0 0
lthumb 20.4621 24.0495 0.453619
rclavicle -5.76476e-14 -2.14687e-14 0
rhumerus -52.035 6.21686 -87.1649
rradius 64.2024 -0 0
rwrist 18.0881 0 0
rhand -25.3638 -25.414 0.0626335
rfingers 7.12502 -0 0
rthumb 1.16028 -55.3703 0.0600816
480
root 3.76551 16.3784 -7.05969 6.15269 68.6288 -4.42603
lfemur -36.4009 -5.03135 -24.1216
ltibia 47.0202 -0 0
lfoot -20.6954 -1.65209 -0.0236199
ltoes 19.633 -0 0
rfemur -32.9028 -0.43074 11.1625
rtibia 76.8634 -0 0
rfoot 22.5295 2.24049 -0.559126
rtoes -21.4906 0 0
lowerback 2.01514 -0.451916 0.978193
upperback -0.503827 -0.556954 0.872368
thorax -1.65079 -0.28126 0.378999
lowerneck -8.5237 -7.65966 -0.173171
upperneck 4.61691 -10.3281 1.69841
head 3.06335 -5.06199 0.0380519
lclavicle -5.76476e-14 -2.14687e-14 0
lhumerus -49.3718 -28.4686 110.382
lradius 55.4517 -0 0
lwrist 3.87472 0 0
lhand -4.14644 -3.92468 0.437654
lfingers 7.12502 -0 0
lthumb 21.596 24.6752 0.378301
rclavicle -5.76476e-14 -2.14687e-14 0
rhumerus -51.7746 6.81332 -87.7095
rradius 64.4099 -0 0
rwrist 18.5822 0 0
rhand -24.9963 -25.1333 0.0502725
rfingers 7.12502 -0 0
rthumb 1.5152 -55.0914 0.0482221
481
root 3.85997 16.3915 -7.00491 6.45685 69.1428 -3.82132
lfemur -35.5262 -6.1968 -24.1136
ltibia 46.6534 -0 0
lfoot -20.8057 -1.75744 -0.0183228
ltoes 19.4935 -0 0
rfemur -34.7398 -0.394907 10.9203
rtibia 78.8022 -0 0
rfoot 21.6405 3.09109 -0.453463
rtoes -20.1994 0 0
lowerback 2.21431 -0.448353 0.727439
upperback -0.451118 -0.559685 0.773039
thorax -1.70679 -0.281145 0.415781
lowerneck -8.52582 -7.73872 -0.256952
upperneck 4.66518 -10.429 1.74972
head 3.09026 -5.11112 0.0596014
lclavicle -5.76476e-14 -2.14687e-14 0
lhumerus -49.3868 -28.8028 110.498
lradius 55.6936 -0 0
lwrist 4.1482 0 0
lhand -3.06097 -3.24565 0.336573
lfingers 7.12502 -0 0
lthumb 22.642 25.2838 0.292204
rclavicle -5.76476e-14 -2.14687e-14 0
rhumerus -51.5212 7.36283 -88.2345
rradius 64.6139 -0 0
rwrist 19.0411 0 0
rhand -24.6595 -24.8746 0.0372026
rfingers 7.12502 -0 0
rthumb 1.84049 -54.8344 0.0356835
482
root 3.96712 16.4065 -6.93753 6.70937 69.4433 -3.30568
lfemur -34.746 -7.24385 -24.0328
ltibia 46.3528 -0 0
lfoot -20.9225 -1.88212 -0.0125647
ltoes 19.2676 -0 0
rfemur -36.4251 -0.378002 10.6852
rtibia 80.5252 -0 0
rfoot 20.6946 3.84428 -0.323702
rtoes -19.0605 0 0
lowerback 2.4141 -0.43785 0.500084
upperback -0.396879 -0.55347 0.679147
thorax -1.76123 -0.276716 0.44454
lowerneck -8.52492 -7.79095 -0.319493
upperneck 4.69963 -10.4956 1.79441
head 3.11103 -5.1434 0.077297
lclavicle -5.76476e-14 -2.14687e-14 0
lhumerus -49.3732 -29.1214 110.571
lradius 55.9185 -0 0
lwrist 4.41858 0 0
lhand -2.08228 -2.59785 0.227227
lfingers 7.12502 -0 0
lthumb 23.5854 25.8691 0.198214
rclavicle -5.76476e-14 -2.14687e-14 0
rhumerus -51.2761 7.85723 -88.7344
rradius 64.8125 -0 0
rwrist 19.4587 0 0
rhand -24.3582 -24.6415 0.0240351
rfingers 7.12502 -0 0
rthumb 2.13145 -54.603 0.0230522
483
root 4.08852 16.4237 -6.85583 6.88778 69.5143 -2.90591
lfemur -34.0756 -8.15725 -23.8683
ltibia 46.1253 -0 0
lfoot -21.0453 -2.02637 -0.00642806
ltoes 18.9514 -0 0
rfemur -37.9344 -0.379519 10.4607
rtibia 82.0037 -0 0
rfoot 19.6957 4.48672 -0.17166
rtoes -18.0936 0 0
lowerback 2.61286 -0.420221 0.29962
upperback -0.341482 -0.537776 0.591853
thorax -1.81357 -0.267736 0.464495
lowerneck -8.52088 -7.81412 -0.358847
upperneck 4.7191 -10.525 1.83173
head 3.12509 -5.15742 0.0907485
lclavicle -5.76476e-14 -2.14687e-14 0
lhumerus -49.3286 -29.4209 110.597
lradius 56.1235 -0 0
lwrist 4.68341 0 0
lhand -1.22551 -1.98839 0.113601
lfingers 7.12502 -0 0
lthumb 24.4115 26.4249 0.0996169
rclavicle -5.76476e-14 -2.14687e-14 0
rhumerus -51.0407 8.28828 -89.2039
rradius 65.0035 -0 0
rwrist 19.8285 0 0
rhand -24.0974 -24.4378 0.0114155
rfingers 7.12502 -0 0
rthumb 2.38337 -54.4006 0.0109478
484
root 4.22579 16.4437 -6.75809 6.97404 69.3397 -2.6445
lfemur -33.53 -8.92142 -23.6091
ltibia 45.9779 0 0
lfoot -21.1734 -2.19044 0
ltoes 18.5409 0 0
rfemur -39.2433 -0.398685 10.2498
rtibia 83.2088 0 0
rfoot 18.6477 5.00504 0
rtoes -17.3184 0 0
lowerback 2.80895 -0.395314 0.129542
upperback -0.285297 -0.512072 0.512318
thorax -1.86323 -0.25397 0.474865
lowerneck -8.51357 -7.80601 -0.373066
upperneck 4.72242 -10.5143 1.86088
head 3.13186 -5.15179 0.0995613
lclavicle 7.92033e-16 -5.54112e-15 0
lhumerus -49.2505 -29.6974 110.571
lradius 56.3056 0 0
lwrist 4.94023 0 0
lhand -0.505724 -1.42422 0
lfingers 7.12502 0 0
lthumb 25.1059 26.9452 0
rclavicle 7.92033e-16 -5.54112e-15 0
rhumerus -50.8159 8.64771 -89.6376
rradius 65.185 0 0
rwrist 20.1445 0 0
rhand -23.8818 -24.267 0
rfingers 7.12502 0 0
rthumb 2.59155 -774.231 0
